<svg width="129" height="128" viewBox="0 0 129 128" fill="none" xmlns="http://www.w3.org/2000/svg">
<g id="Local / Avatar">
<path id="Avatar" fill-rule="evenodd" clip-rule="evenodd" d="M16.5 0C7.66344 0 0.5 7.16344 0.5 16V112C0.5 120.837 7.66344 128 16.5 128V110C16.5 99.0655 24.7801 87.3029 41.3402 81.5624C47.6002 86.8279 55.6797 90 64.5 90C73.2935 90 81.3507 86.8472 87.6027 81.6103C104.201 87.4371 112.5 99.341 112.5 110V128C121.337 128 128.5 120.837 128.5 112V16C128.5 7.16344 121.337 0 112.5 0H16.5ZM92.5 54C92.5 64.9094 86.261 74.3616 77.1563 78.9831C73.3552 80.9125 69.0546 82 64.5 82C59.933 82 55.6214 80.9066 51.8127 78.9673C42.7249 74.3401 36.5 64.897 36.5 54C36.5 38.536 49.036 26 64.5 26C79.964 26 92.5 38.536 92.5 54Z" fill="#D9D9D9"/>
</g>
</svg>
