<svg width="102" height="101" viewBox="0 0 102 101" fill="none" xmlns="http://www.w3.org/2000/svg">
<g id="Frame 37585">
<circle id="Ellipse 138" cx="51.1305" cy="50.5509" r="42.3015" stroke="#003240" stroke-width="16.2956"/>
<path id="Ellipse 139" d="M57.5402 9.05003C58.2531 4.43442 55.0745 0.0393877 50.4046 0.106591C40.2272 0.253054 30.2587 3.4786 21.8612 9.46023C11.1514 17.0889 3.84322 28.5976 1.49332 41.535C-0.85657 54.4723 1.9375 67.8159 9.28042 78.7237C15.038 87.2764 23.2354 93.8015 32.7112 97.5177C37.0592 99.2229 41.5804 96.2264 42.5362 91.6549C43.492 87.0835 40.4821 82.6933 36.2937 80.627C31.0936 78.0616 26.6021 74.1688 23.3104 69.2789C18.4291 62.0279 16.5717 53.1577 18.1338 44.5575C19.6959 35.9573 24.5541 28.3068 31.6735 23.2356C36.4746 19.8157 42.0482 17.751 47.8183 17.1782C52.4658 16.7168 56.8274 13.6656 57.5402 9.05003Z" fill="#2DB794"/>
</g>
</svg>
