<svg width="37" height="36" viewBox="0 0 37 36" fill="none" xmlns="http://www.w3.org/2000/svg">
  <path fill-rule="evenodd" clip-rule="evenodd" d="M9.5 19.9143V23.0001C9.5 23.5524 9.94772 24.0001 10.5 24.0001H13.5858C13.851 24.0001 14.1054 23.8947 14.2929 23.7072L26.7929 11.2072C27.1834 10.8167 27.1834 10.1835 26.7929 9.79299L23.7071 6.7072C23.3166 6.31668 22.6834 6.31668 22.2929 6.7072L9.79289 19.2072C9.60536 19.3947 9.5 19.6491 9.5 19.9143ZM6.5 29.0001C5.94772 29.0001 5.5 29.4478 5.5 30.0001C5.5 30.5524 5.94772 31.0001 6.5 31.0001H30.5C31.0523 31.0001 31.5 30.5524 31.5 30.0001C31.5 29.4478 31.0523 29.0001 30.5 29.0001H6.5Z" fill="#F8F8F8"/>
</svg>