<svg width="24" height="24" viewBox="0 0 24 24" fill="none" xmlns="http://www.w3.org/2000/svg">
<g id="forum">
<mask id="mask0_670_3292" style="mask-type:alpha" maskUnits="userSpaceOnUse" x="0" y="0" width="24" height="24">
<rect id="Bounding box" width="24" height="24" fill="#565556"/>
</mask>
<g mask="url(#mask0_670_3292)">
<path id="forum_2" d="M7.23519 18.9813C6.95149 18.9813 6.71368 18.8847 6.52177 18.6914C6.32986 18.4982 6.2339 18.2587 6.2339 17.973V15.9564H19.2506V6.88153H21.2532C21.5369 6.88153 21.7747 6.97816 21.9666 7.17142C22.1585 7.36468 22.2545 7.60416 22.2545 7.88985V23.0146L18.2493 18.9813H7.23519ZM2.22876 17.973V3.85658C2.22876 3.57089 2.32472 3.33142 2.51663 3.13816C2.70854 2.9449 2.94635 2.84827 3.23005 2.84827H16.2468C16.5305 2.84827 16.7683 2.9449 16.9602 3.13816C17.1521 3.33142 17.248 3.57089 17.248 3.85658V12.9314C17.248 13.2171 17.1521 13.4566 16.9602 13.6499C16.7683 13.8431 16.5305 13.9397 16.2468 13.9397H6.2339L2.22876 17.973ZM15.2455 11.9231V4.8649H4.23133V11.9231H15.2455Z" fill="#565556"/>
</g>
</g>
</svg>
