<svg width="53" height="49" viewBox="0 0 53 49" fill="none" xmlns="http://www.w3.org/2000/svg">
<path d="M25.5 5C14.1966 5 5 14.1966 5 25.5C5 36.8034 14.1966 46 25.5 46C36.8034 46 46 36.8034 46 25.5C46 14.1966 36.8034 5 25.5 5ZM25.5 8.15385C35.0987 8.15385 42.8462 15.9013 42.8462 25.5C42.8462 35.0987 35.0987 42.8462 25.5 42.8462C15.9013 42.8462 8.15385 35.0987 8.15385 25.5C8.15385 15.9013 15.9013 8.15385 25.5 8.15385ZM23.9231 16.0385V23.9231H16.0385V27.0769H23.9231V34.9615H27.0769V27.0769H34.9615V23.9231H27.0769V16.0385H23.9231Z" fill="#ADADAD"/>
</svg>
