<svg width="36" height="36" viewBox="0 0 36 36" fill="none" xmlns="http://www.w3.org/2000/svg">
  <g clip-path="url(#clip0_2922_4530)">
    <path d="M30 9C30.7956 9 31.5587 9.31607 32.1213 9.87868C32.6839 10.4413 33 11.2044 33 12V28.9995C33 29.7951 32.6839 30.5582 32.1213 31.1208C31.5587 31.6834 30.7956 31.9995 30 31.9995H10.5C9.70435 31.9995 8.94129 31.6834 8.37868 31.1208C7.81607 30.5582 7.5 29.7951 7.5 28.9995V12C7.5 11.2044 7.81607 10.4413 8.37868 9.87868C8.94129 9.31607 9.70435 9 10.5 9H30ZM17.598 20.916L10.704 27.81L10.605 27.9L10.5 27.981V29.001H30V27.981L29.895 27.9015L29.796 27.8115L26.436 24.4515L25.9065 24.9825L25.989 25.065C26.258 25.3349 26.4142 25.6972 26.4258 26.0781C26.4375 26.459 26.3037 26.8301 26.0516 27.1159C25.7996 27.4018 25.4482 27.581 25.0688 27.6171C24.6894 27.6532 24.3105 27.5436 24.009 27.3105L23.868 27.186L17.598 20.916ZM25.5 4.5C26.2569 4.49976 26.9858 4.78561 27.5408 5.30025C28.0958 5.81488 28.4357 6.52027 28.4925 7.275L28.5 7.5H7.5C7.1326 7.50005 6.77799 7.63493 6.50344 7.87907C6.22889 8.12321 6.05349 8.45962 6.0105 8.8245L6 9V27C5.24314 27.0002 4.51415 26.7144 3.95918 26.1998C3.40421 25.6851 3.06426 24.9797 3.0075 24.225L3 24V9C2.99994 7.85218 3.43849 6.74773 4.22593 5.91261C5.01336 5.07749 6.09016 4.57484 7.236 4.5075L7.5 4.5H25.5ZM30 12H10.5V23.772L16.272 18C16.4461 17.8258 16.6528 17.6877 16.8804 17.5934C17.1079 17.4992 17.3517 17.4507 17.598 17.4507C17.8443 17.4507 18.0881 17.4992 18.3156 17.5934C18.5432 17.6877 18.7499 17.8258 18.924 18L23.7855 22.86L25.1115 21.5355C25.2856 21.3613 25.4923 21.2232 25.7199 21.1289C25.9474 21.0347 26.1912 20.9861 26.4375 20.9861C26.6838 20.9861 26.9276 21.0347 27.1551 21.1289C27.3827 21.2232 27.5894 21.3613 27.7635 21.5355L30 23.772V12ZM24.75 14.25C25.0455 14.25 25.3381 14.3082 25.611 14.4213C25.884 14.5343 26.1321 14.7001 26.341 14.909C26.5499 15.1179 26.7157 15.366 26.8287 15.639C26.9418 15.9119 27 16.2045 27 16.5C27 16.7955 26.9418 17.0881 26.8287 17.361C26.7157 17.634 26.5499 17.8821 26.341 18.091C26.1321 18.2999 25.884 18.4657 25.611 18.5787C25.3381 18.6918 25.0455 18.75 24.75 18.75C24.1533 18.75 23.581 18.5129 23.159 18.091C22.7371 17.669 22.5 17.0967 22.5 16.5C22.5 15.9033 22.7371 15.331 23.159 14.909C23.581 14.4871 24.1533 14.25 24.75 14.25Z" fill="#008772"/>
  </g>
  <defs>
    <clipPath id="clip0_2922_4530">
      <rect width="36" height="36" fill="white"/>
    </clipPath>
  </defs>
</svg>