<svg width="30" height="30" viewBox="0 0 30 30" fill="none" xmlns="http://www.w3.org/2000/svg">
  <mask id="mask0_2239_648" style="mask-type:alpha" maskUnits="userSpaceOnUse" x="0" y="0" width="30" height="30">
    <rect width="30" height="30" fill="#D9D9D9"/>
  </mask>
  <g mask="url(#mask0_2239_648)">
    <path d="M15 28.75V26.25H23.75V25H18.75V15H23.75V13.75C23.75 11.3333 22.8958 9.27083 21.1875 7.5625C19.4792 5.85417 17.4167 5 15 5C12.5833 5 10.5208 5.85417 8.8125 7.5625C7.10417 9.27083 6.25 11.3333 6.25 13.75V15H11.25V25H6.25C5.5625 25 4.97396 24.7552 4.48438 24.2656C3.99479 23.776 3.75 23.1875 3.75 22.5V13.75C3.75 12.2083 4.04688 10.7552 4.64063 9.39063C5.23438 8.02604 6.04167 6.83333 7.0625 5.8125C8.08333 4.79167 9.27604 3.98438 10.6406 3.39063C12.0052 2.79688 13.4583 2.5 15 2.5C16.5417 2.5 17.9948 2.79688 19.3594 3.39063C20.724 3.98438 21.9167 4.79167 22.9375 5.8125C23.9583 6.83333 24.7656 8.02604 25.3594 9.39063C25.9531 10.7552 26.25 12.2083 26.25 13.75V26.25C26.25 26.9375 26.0052 27.526 25.5156 28.0156C25.026 28.5052 24.4375 28.75 23.75 28.75H15Z" fill="#1C1B1F"/>
  </g>
</svg>