<svg width="36" height="36" viewBox="0 0 36 36" fill="none" xmlns="http://www.w3.org/2000/svg">
<g clip-path="url(#clip0_209_18442)">
<path d="M12.8998 24.6008C11.59 25.8082 9.86394 26.4622 8.0829 26.4259C6.30186 26.3897 4.60385 25.666 3.34421 24.4064C2.08456 23.1467 1.3609 21.4487 1.32467 19.6677C1.28844 17.8867 1.94244 16.1606 3.14981 14.8508L14.8498 3.15079C16.1596 1.94342 17.8857 1.28942 19.6667 1.32565C21.4478 1.36188 23.1458 2.08554 24.4054 3.34518C25.6651 4.60483 26.3887 6.30284 26.425 8.08388C26.4612 9.86492 25.8072 11.591 24.5998 12.9008M8.99831 8.99929L15.3733 15.3743" stroke="black" stroke-width="1.5" stroke-linecap="round" stroke-linejoin="round"/>
<path d="M25.875 22.5V29.25M22.5 25.875H29.25M34.875 23.625C34.8801 26.2447 33.9908 28.7877 32.3543 30.8334C30.7177 32.8791 28.432 34.3049 25.875 34.875C23.3181 34.3049 21.0323 32.8791 19.3958 30.8334C17.7592 28.7877 16.87 26.2447 16.875 23.625V20.25C16.875 19.6533 17.1121 19.081 17.534 18.659C17.956 18.2371 18.5283 18 19.125 18H32.625C33.2218 18 33.7941 18.2371 34.216 18.659C34.638 19.081 34.875 19.6533 34.875 20.25V23.625Z" stroke="black" stroke-width="1.5" stroke-linecap="round" stroke-linejoin="round"/>
</g>
<defs>
<clipPath id="clip0_209_18442">
<rect width="36" height="36" fill="white"/>
</clipPath>
</defs>
</svg>
