<svg width="20" height="19" viewBox="0 0 20 19" fill="none" xmlns="http://www.w3.org/2000/svg">
<g id="General / Person" clip-path="url(#clip0_848_12105)">
<mask id="mask0_848_12105" style="mask-type:alpha" maskUnits="userSpaceOnUse" x="0" y="0" width="20" height="19">
<rect id="Bounding box" x="0.988281" y="0.22728" width="18.5455" height="18.5455" fill="#D9D9D9"/>
</mask>
<g mask="url(#mask0_848_12105)">
<path id="person" d="M10.2609 9.50001C9.41092 9.50001 8.68327 9.19736 8.07797 8.59206C7.47266 7.98675 7.17001 7.2591 7.17001 6.4091C7.17001 5.5591 7.47266 4.83145 8.07797 4.22615C8.68327 3.62084 9.41092 3.31819 10.2609 3.31819C11.1109 3.31819 11.8386 3.62084 12.4439 4.22615C13.0492 4.83145 13.3518 5.5591 13.3518 6.4091C13.3518 7.2591 13.0492 7.98675 12.4439 8.59206C11.8386 9.19736 11.1109 9.50001 10.2609 9.50001ZM4.0791 15.6818V13.5182C4.0791 13.0803 4.19179 12.6778 4.41717 12.3108C4.64255 11.9438 4.94198 11.6636 5.31547 11.4705C6.11395 11.0712 6.92531 10.7718 7.74956 10.5722C8.5738 10.3725 9.41092 10.2727 10.2609 10.2727C11.1109 10.2727 11.948 10.3725 12.7723 10.5722C13.5965 10.7718 14.4079 11.0712 15.2064 11.4705C15.5799 11.6636 15.8793 11.9438 16.1047 12.3108C16.33 12.6778 16.4427 13.0803 16.4427 13.5182V15.6818H4.0791Z" fill="black"/>
</g>
</g>
<defs>
<clipPath id="clip0_848_12105">
<rect width="18.5455" height="18.5455" fill="white" transform="translate(0.988281 0.22728)"/>
</clipPath>
</defs>
</svg>
