<svg width="36" height="36" viewBox="0 0 36 36" fill="none" xmlns="http://www.w3.org/2000/svg">
  <path d="M15.2859 1.92867C13.3242 1.96172 11.5524 3.13172 10.7508 4.94086L20.3484 7.83984C20.7703 5.32336 19.2586 2.88352 16.8258 2.14313C16.3899 2.01094 15.9328 1.93852 15.4758 1.92867H15.2859ZM10.3852 6.15305C9.95626 8.67656 11.468 11.1234 13.9078 11.8617C16.3547 12.6 18.9633 11.3906 19.9899 9.04922L10.3852 6.15305ZM29.0531 9.26719C27.2742 9.27422 25.3828 10.132 23.9555 12.15L15.1805 24.5883C12.825 27.9211 13.8516 31.4086 16.1719 33.0539C18.4992 34.7063 22.1203 34.5164 24.4758 31.1836L33.2438 18.7523C35.5992 15.4125 34.5727 11.932 32.2524 10.2797C31.3805 9.66094 30.3328 9.30234 29.2289 9.26719H29.0531ZM28.9266 10.4836C29.018 10.4836 29.1094 10.4836 29.1938 10.4906C30.0445 10.5258 30.8461 10.8281 31.5211 11.3133C33.3281 12.593 34.2352 15.1453 32.2031 18.0211L27.668 24.4547C25.1508 23.7797 21.9164 21.4805 20.4469 19.3219L24.9961 12.8813C26.1844 11.2008 27.5977 10.5117 28.9266 10.4836ZM6.41603 15.8414C5.73962 15.8484 5.07236 15.9891 4.4522 16.2633C2.12415 17.2828 0.912669 19.8844 1.62283 22.3313L10.8141 18.3164C9.89298 16.7625 8.21954 15.8203 6.41603 15.8414ZM11.3133 19.4695L2.12345 23.4914C3.42072 25.6992 6.15236 26.5852 8.49376 25.5656C10.8281 24.5391 12.0375 21.9234 11.3133 19.4695Z" fill="#008772"/>
</svg>