<svg width="18" height="18" viewBox="0 0 18 18" fill="none" xmlns="http://www.w3.org/2000/svg">
<path fill-rule="evenodd" clip-rule="evenodd" d="M8.28234 0.666016C12.7573 0.666016 16.3973 4.30602 16.3973 8.78102C16.3973 10.8923 15.5871 12.8179 14.2612 14.2631L16.8702 16.8666C17.1143 17.1108 17.1152 17.5058 16.871 17.7499C16.7493 17.8733 16.5885 17.9341 16.4285 17.9341C16.2693 17.9341 16.1093 17.8733 15.9868 17.7516L13.3464 15.1185C11.9574 16.2309 10.1962 16.8968 8.28234 16.8968C3.80734 16.8968 0.166504 13.256 0.166504 8.78102C0.166504 4.30602 3.80734 0.666016 8.28234 0.666016ZM8.28234 1.91602C4.4965 1.91602 1.4165 4.99518 1.4165 8.78102C1.4165 12.5668 4.4965 15.6468 8.28234 15.6468C12.0673 15.6468 15.1473 12.5668 15.1473 8.78102C15.1473 4.99518 12.0673 1.91602 8.28234 1.91602Z" fill="#9393C1"/>
</svg>
