<svg width="24" height="24" viewBox="0 0 24 24" fill="none" xmlns="http://www.w3.org/2000/svg">
<g id="ph:star-fill">
<path id="Vector" d="M21.9844 10.7231L17.7563 14.4131L19.0228 19.9069C19.0898 20.1941 19.0707 20.4946 18.9678 20.771C18.865 21.0474 18.6829 21.2874 18.4444 21.4608C18.2059 21.6343 17.9215 21.7336 17.6269 21.7464C17.3323 21.7591 17.0404 21.6847 16.7878 21.5325L11.9963 18.6262L7.21501 21.5325C6.96242 21.6847 6.67056 21.7591 6.37592 21.7464C6.08128 21.7336 5.79694 21.6343 5.55844 21.4608C5.31994 21.2874 5.13787 21.0474 5.03499 20.771C4.93211 20.4946 4.91299 20.1941 4.98001 19.9069L6.2447 14.4187L2.01563 10.7231C1.79195 10.5302 1.63021 10.2755 1.55069 9.99107C1.47116 9.7066 1.4774 9.40498 1.56861 9.12404C1.65982 8.84309 1.83195 8.59533 2.06341 8.41182C2.29487 8.22832 2.57535 8.11723 2.8697 8.0925L8.44407 7.60968L10.62 2.41968C10.7336 2.14735 10.9253 1.91473 11.1709 1.75111C11.4164 1.58749 11.7049 1.50018 12 1.50018C12.2951 1.50018 12.5836 1.58749 12.8291 1.75111C13.0747 1.91473 13.2664 2.14735 13.38 2.41968L15.5625 7.60968L21.135 8.0925C21.4293 8.11723 21.7098 8.22832 21.9413 8.41182C22.1728 8.59533 22.3449 8.84309 22.4361 9.12404C22.5273 9.40498 22.5335 9.7066 22.454 9.99107C22.3745 10.2755 22.2127 10.5302 21.9891 10.7231H21.9844Z" fill="#FCD200"/>
</g>
</svg>
