<svg width="37" height="36" viewBox="0 0 37 36" fill="none" xmlns="http://www.w3.org/2000/svg">
  <path d="M29 10.5L27.6995 28.713C27.6456 29.4699 27.3069 30.1782 26.7517 30.6954C26.1964 31.2125 25.4658 31.5 24.707 31.5H12.293C11.5342 31.5 10.8036 31.2125 10.2483 30.6954C9.69306 30.1782 9.35437 29.4699 9.3005 28.713L8 10.5M15.5 16.5V25.5M21.5 16.5V25.5M23 10.5V6C23 5.60218 22.842 5.22064 22.5607 4.93934C22.2794 4.65804 21.8978 4.5 21.5 4.5H15.5C15.1022 4.5 14.7206 4.65804 14.4393 4.93934C14.158 5.22064 14 5.60218 14 6V10.5M6.5 10.5H30.5" stroke="#F8F8F8" stroke-width="2" stroke-linecap="round" stroke-linejoin="round"/>
</svg>