<svg width="24" height="24" viewBox="0 0 24 24" fill="none" xmlns="http://www.w3.org/2000/svg">
  <path d="M1.74884 19.0272L10.944 2.224C11.0476 2.03438 11.2003 1.87613 11.3861 1.76589C11.5719 1.65565 11.784 1.59747 12 1.59747C12.2161 1.59747 12.4282 1.65565 12.614 1.76589C12.7998 1.87613 12.9525 2.03438 13.056 2.224L22.2512 19.0272C22.3514 19.2102 22.4021 19.4161 22.3983 19.6247C22.3946 19.8332 22.3366 20.0372 22.23 20.2165C22.1234 20.3958 21.9719 20.5442 21.7904 20.6471C21.609 20.75 21.4038 20.8038 21.1952 20.8032H2.80484C2.59626 20.8038 2.39112 20.75 2.20967 20.6471C2.02822 20.5442 1.87672 20.3958 1.77012 20.2165C1.66352 20.0372 1.60549 19.8332 1.60175 19.6247C1.59802 19.4161 1.64872 19.2102 1.74884 19.0272ZM13.28 12.8L13.9248 8.9312C13.9439 8.81664 13.9378 8.69931 13.9069 8.58736C13.876 8.47541 13.8212 8.37152 13.7461 8.28291C13.671 8.1943 13.5776 8.1231 13.4722 8.07424C13.3669 8.02539 13.2522 8.00005 13.136 8H10.864C10.7479 8.00005 10.6332 8.02539 10.5278 8.07424C10.4225 8.1231 10.329 8.1943 10.254 8.28291C10.1789 8.37152 10.1241 8.47541 10.0932 8.58736C10.0623 8.69931 10.0562 8.81664 10.0752 8.9312L10.72 12.8H13.28ZM13.76 15.84C13.76 15.3732 13.5746 14.9256 13.2446 14.5955C12.9145 14.2654 12.4668 14.08 12 14.08C11.5333 14.08 11.0856 14.2654 10.7555 14.5955C10.4255 14.9256 10.24 15.3732 10.24 15.84C10.24 16.3068 10.4255 16.7544 10.7555 17.0845C11.0856 17.4146 11.5333 17.6 12 17.6C12.4668 17.6 12.9145 17.4146 13.2446 17.0845C13.5746 16.7544 13.76 16.3068 13.76 15.84Z" fill="#FCD200"/>
</svg>